<?xml version="1.0" encoding="utf-8"?>
<!-- Generator: Adobe Illustrator 27.9.0, SVG Export Plug-In . SVG Version: 6.00 Build 0)  -->
<svg version="1.1" id="Layer_1" xmlns="http://www.w3.org/2000/svg" xmlns:xlink="http://www.w3.org/1999/xlink" x="0px" y="0px"
	 viewBox="0 0 1080 1080" style="enable-background:new 0 0 1080 1080;" xml:space="preserve">
<style type="text/css">
	.st0{fill:url(#SVGID_1_);}
	.st1{fill:#82A6D7;}
	.st2{fill:url(#SVGID_00000113329319561786861960000003888139009977830536_);}
	.st3{fill:url(#SVGID_00000128458008096304960540000017653323750379211455_);}
	.st4{fill:url(#SVGID_00000000908691195690450350000001429581775881321627_);}
	.st5{opacity:0.34;fill:#EE94BC;}
	.st6{fill:url(#SVGID_00000075874301995479930920000008727026511151900056_);}
	.st7{fill:url(#SVGID_00000052064420928509527920000010626778158808875411_);}
	.st8{fill:url(#SVGID_00000147214226160680338020000012733603928680008336_);}
	.st9{fill:url(#SVGID_00000010305084357099829970000001199555924008750268_);}
	.st10{fill:url(#SVGID_00000029016833591619249100000014347001967896120987_);}
	.st11{fill:url(#SVGID_00000031898889054498263680000012289782442066241973_);}
	.st12{fill:url(#SVGID_00000148633416575411067600000018025271121349880449_);}
	.st13{fill:url(#SVGID_00000101083310719048490790000004449436726643163008_);}
	.st14{fill:none;stroke:#FFFFFF;stroke-miterlimit:10;}
	.st15{fill:none;stroke:#ED76A4;stroke-miterlimit:10;}
	.st16{fill:#111D5E;}
	.st17{fill:#B7AFED;}
	.st18{fill:url(#SVGID_00000015337608832595610990000016577892282743472270_);}
	.st19{fill:#C1B2D7;}
	.st20{fill:url(#SVGID_00000140726024519099266020000011578864849385793448_);}
	.st21{fill:url(#SVGID_00000183225978629739114840000000385497123412751546_);}
	.st22{fill:url(#SVGID_00000046302239055274881480000001551589075170185903_);}
	.st23{fill:url(#SVGID_00000177454163281526593890000016909928853457904525_);}
	.st24{fill:url(#SVGID_00000075863942950763824210000010105649061402866825_);}
	.st25{fill:url(#SVGID_00000137121347860199682590000012225620631065994666_);}
	.st26{fill:url(#SVGID_00000031193480873264481160000005064698594291888297_);}
	.st27{fill:url(#SVGID_00000119819945572538185320000004662164242223658883_);}
	.st28{opacity:0.3;fill:#EE94BC;}
	.st29{fill:#ED76A4;}
	.st30{opacity:0.3;}
	.st31{fill:#EE94BC;}
	.st32{opacity:0.3;fill:#ED76A4;}
	.st33{clip-path:url(#SVGID_00000174578365741575662130000009088687498891842689_);fill:#82A6D7;}
	.st34{opacity:0.5;}
	.st35{clip-path:url(#SVGID_00000157287398892612945090000006978481515062715009_);fill:#C1B2D7;}
	.st36{clip-path:url(#SVGID_00000000207207037023706390000018107077488418513055_);fill:#ED76A4;}
	.st37{fill:url(#SVGID_00000108990683348124911310000004251515058399099821_);}
	.st38{fill:url(#SVGID_00000096028144109475470420000012173417159772119936_);}
</style>
<g class="st30">
	<g>
		<g>
			<g>
				<path class="st29" d="M696.93,532.35l-63.4-55.47l4.16-91.07c2.61-52.23-13.92-103.88-47.4-148.08l-32.62-45.25
					c-7.3-10.13-22.36-10.13-29.67,0l-32.62,45.25c-33.48,44.2-50.01,95.85-47.4,148.08l4.18,91.45l-62.93,55.99
					c-3.37,3-4.9,7.55-4.03,11.98l14.75,74.59c1.52,7.7,9.6,12.2,16.95,9.45l61.38-23.02h129.11l61.44,23.04
					c7.33,2.75,15.39-1.71,16.94-9.39l15.26-75.44C701.93,539.97,700.37,535.35,696.93,532.35z M542.84,427.12
					c-21.08,0-38.18-17.09-38.18-38.18c0-21.08,17.09-38.17,38.18-38.17s38.17,17.09,38.17,38.17
					C581.01,410.03,563.92,427.12,542.84,427.12z"/>
				<path class="st29" d="M790.25,832.95c-13.79,0-26.93,2.67-39.08,7.34c-8.93-35.49-40.8-61.86-79.06-61.86
					c-3.13,0-6.1,0.58-9.13,0.92c0-0.31,0.05-0.61,0.05-0.92c0-70.26-56.96-127.23-127.23-127.23s-127.23,56.96-127.23,127.23
					c0,0.31,0.04,0.61,0.05,0.92c-3.04-0.34-6.01-0.92-9.13-0.92c-37.22,0-68.27,25.01-78.18,59.03c-9.8-2.89-20.14-4.5-30.87-4.5
					c-57.01,0-103.79,43.74-108.64,99.49c-0.45,5.18,3.95,9.56,9.14,9.56h698.81c5.2,0,9.59-4.38,9.14-9.56
					C894.05,876.69,847.26,832.95,790.25,832.95z"/>
			</g>
		</g>
	</g>
</g>
</svg>
