<?xml version="1.0" encoding="utf-8"?>
<!-- Generator: Adobe Illustrator 27.9.0, SVG Export Plug-In . SVG Version: 6.00 Build 0)  -->
<svg version="1.1" id="Layer_1" xmlns="http://www.w3.org/2000/svg" xmlns:xlink="http://www.w3.org/1999/xlink" x="0px" y="0px"
	 viewBox="0 0 1080 1080" style="enable-background:new 0 0 1080 1080;" xml:space="preserve">
<style type="text/css">
	.st0{fill:url(#SVGID_1_);}
	.st1{fill:#82A6D7;}
	.st2{fill:url(#SVGID_00000144327118100124140900000016893309427017227438_);}
	.st3{fill:url(#SVGID_00000011022337994807338740000006217201123589056680_);}
	.st4{fill:url(#SVGID_00000081638203981221547620000008861739462495488190_);}
	.st5{opacity:0.34;fill:#EE94BC;}
	.st6{fill:url(#SVGID_00000174603426995581524830000006934246881184943273_);}
	.st7{fill:url(#SVGID_00000044889299287855325880000016575672538443807408_);}
	.st8{fill:url(#SVGID_00000003799174861576866190000010089987474706697372_);}
	.st9{fill:url(#SVGID_00000016789284001020687310000018215390995535862716_);}
	.st10{fill:url(#SVGID_00000121258802921077619470000014417980952334509957_);}
	.st11{fill:url(#SVGID_00000180328124180573026440000003577776297916198799_);}
	.st12{fill:url(#SVGID_00000165927940928306647220000001481047869659589003_);}
	.st13{fill:url(#SVGID_00000110469397087406642560000005737782723915828099_);}
	.st14{fill:none;stroke:#FFFFFF;stroke-miterlimit:10;}
	.st15{fill:none;stroke:#ED76A4;stroke-miterlimit:10;}
	.st16{fill:#111D5E;}
	.st17{fill:#B7AFED;}
	.st18{fill:url(#SVGID_00000041981752567371727640000003776173051864612767_);}
	.st19{fill:#C1B2D7;}
	.st20{fill:url(#SVGID_00000098210617781848429580000011844704723675787702_);}
	.st21{fill:url(#SVGID_00000178170626985791647570000012616574285803776178_);}
	.st22{fill:url(#SVGID_00000152232370679507049040000000180465800345854364_);}
	.st23{fill:url(#SVGID_00000075147190967514610500000005368251739846266548_);}
	.st24{fill:url(#SVGID_00000155126451499158789100000006918835087947287736_);}
	.st25{fill:url(#SVGID_00000136398830849638507330000006140552016089112250_);}
	.st26{fill:url(#SVGID_00000049938379791312158330000000036366070366677134_);}
	.st27{fill:url(#SVGID_00000159436576796285481140000017631272674357129365_);}
	.st28{opacity:0.3;fill:#EE94BC;}
	.st29{fill:#ED76A4;}
	.st30{opacity:0.3;}
	.st31{fill:#EE94BC;}
	.st32{opacity:0.3;fill:#ED76A4;}
	.st33{clip-path:url(#SVGID_00000007414355413376097110000009750341057462636417_);fill:#82A6D7;}
	.st34{opacity:0.5;}
	.st35{clip-path:url(#SVGID_00000124119642602003952120000007478575396527109296_);fill:#C1B2D7;}
	.st36{clip-path:url(#SVGID_00000120538341100001219270000015551344926798074784_);fill:#ED76A4;}
	.st37{fill:url(#SVGID_00000155143696128564104940000011349918084201054875_);}
	.st38{fill:url(#SVGID_00000154427416697758642540000005572063329310154416_);}
</style>
<g>
	<linearGradient id="SVGID_1_" gradientUnits="userSpaceOnUse" x1="-100.0673" y1="1125.2902" x2="1682.3596" y2="-177.2533">
		<stop  offset="0.0138" style="stop-color:#FFFFFF"/>
		<stop  offset="0.021" style="stop-color:#FDFEFE"/>
		<stop  offset="0.1118" style="stop-color:#E7EFF8"/>
		<stop  offset="0.2175" style="stop-color:#D6E4F4"/>
		<stop  offset="0.348" style="stop-color:#CADDF0"/>
		<stop  offset="0.5284" style="stop-color:#C3D8EF"/>
		<stop  offset="1" style="stop-color:#C1D7EE"/>
	</linearGradient>
	<rect x="209.64" y="269.88" class="st0" width="768.36" height="696.67"/>
	<path class="st1" d="M970.44,211.06H217.2c-4.18,0-7.56,3.39-7.56,7.56v51.26H978v-51.26C978,214.45,974.61,211.06,970.44,211.06z"
		/>
	<g>
		
			<linearGradient id="SVGID_00000053536755018744668510000013361562124556849052_" gradientUnits="userSpaceOnUse" x1="256.9218" y1="252.2218" x2="286.5141" y2="230.5967">
			<stop  offset="0.0138" style="stop-color:#FFFFFF"/>
			<stop  offset="1" style="stop-color:#C1D7EE"/>
		</linearGradient>
		<circle style="fill:url(#SVGID_00000053536755018744668510000013361562124556849052_);" cx="268.44" cy="243.8" r="8.56"/>
		
			<linearGradient id="SVGID_00000165235653218963406410000014474412654973330056_" gradientUnits="userSpaceOnUse" x1="376.9741" y1="252.2218" x2="406.5664" y2="230.5967">
			<stop  offset="0.0138" style="stop-color:#FFFFFF"/>
			<stop  offset="1" style="stop-color:#C1D7EE"/>
		</linearGradient>
		<circle style="fill:url(#SVGID_00000165235653218963406410000014474412654973330056_);" cx="388.49" cy="243.8" r="8.56"/>
		
			<linearGradient id="SVGID_00000134223964916453194020000017631260164275258028_" gradientUnits="userSpaceOnUse" x1="316.9479" y1="252.2218" x2="346.5403" y2="230.5967">
			<stop  offset="0.0138" style="stop-color:#FFFFFF"/>
			<stop  offset="1" style="stop-color:#C1D7EE"/>
		</linearGradient>
		<circle style="fill:url(#SVGID_00000134223964916453194020000017631260164275258028_);" cx="328.47" cy="243.8" r="8.56"/>
	</g>
	<g>
		
			<linearGradient id="SVGID_00000063618153629965429930000005146154462361860765_" gradientUnits="userSpaceOnUse" x1="249.3053" y1="476.2594" x2="716.3914" y2="134.927">
			<stop  offset="0.0138" style="stop-color:#FFFFFF"/>
			<stop  offset="1" style="stop-color:#C1D7EE"/>
		</linearGradient>
		
			<rect x="268.46" y="336.95" style="fill:url(#SVGID_00000063618153629965429930000005146154462361860765_);" width="325.36" height="12.87"/>
		
			<linearGradient id="SVGID_00000103961129238278474900000009169417161445559191_" gradientUnits="userSpaceOnUse" x1="235.259" y1="652.0496" x2="1156.3124" y2="-21.0282">
			<stop  offset="0.0138" style="stop-color:#FFFFFF"/>
			<stop  offset="1" style="stop-color:#C1D7EE"/>
		</linearGradient>
		
			<rect x="268.46" y="383.59" style="fill:url(#SVGID_00000103961129238278474900000009169417161445559191_);" width="650.72" height="12.87"/>
		
			<linearGradient id="SVGID_00000099634842011132339250000014789658401435709062_" gradientUnits="userSpaceOnUse" x1="235.259" y1="698.6938" x2="1156.3124" y2="25.6159">
			<stop  offset="0.0138" style="stop-color:#FFFFFF"/>
			<stop  offset="1" style="stop-color:#C1D7EE"/>
		</linearGradient>
		
			<rect x="268.46" y="430.24" style="fill:url(#SVGID_00000099634842011132339250000014789658401435709062_);" width="650.72" height="12.87"/>
	</g>
	<polyline class="st14" points="267.29,462.11 267.29,873.67 911.55,873.67 	"/>
	<polyline class="st15" points="267.29,900.74 337.43,791.88 408.87,833.28 491.5,714.13 582.1,809.56 675.76,652.79 774.72,835.6 
		911.55,646.11 	"/>
	<circle class="st16" cx="337.43" cy="791.88" r="7.63"/>
	<path class="st16" d="M416.49,833.28c0,4.21-3.42,7.63-7.63,7.63s-7.63-3.41-7.63-7.63c0-4.21,3.41-7.63,7.63-7.63
		S416.49,829.06,416.49,833.28z"/>
	<circle class="st16" cx="492.15" cy="715.07" r="7.63"/>
	<path class="st16" d="M589.42,809.88c0,4.21-3.41,7.63-7.63,7.63s-7.63-3.41-7.63-7.63s3.41-7.63,7.63-7.63
		S589.42,805.67,589.42,809.88z"/>
	<circle class="st16" cx="675.43" cy="653.73" r="7.63"/>
	<path class="st16" d="M782.34,835.6c0,4.21-3.41,7.63-7.63,7.63s-7.63-3.42-7.63-7.63s3.41-7.63,7.63-7.63
		S782.34,831.39,782.34,835.6z"/>
	<path class="st16" d="M919.18,646.11c0,4.21-3.41,7.63-7.63,7.63s-7.63-3.41-7.63-7.63s3.42-7.63,7.63-7.63
		S919.18,641.89,919.18,646.11z"/>
</g>
</svg>
