<?xml version="1.0" encoding="utf-8"?>
<!-- Generator: Adobe Illustrator 27.9.0, SVG Export Plug-In . SVG Version: 6.00 Build 0)  -->
<svg version="1.1" id="Layer_1" xmlns="http://www.w3.org/2000/svg" xmlns:xlink="http://www.w3.org/1999/xlink" x="0px" y="0px"
	 viewBox="0 0 1080 1080" style="enable-background:new 0 0 1080 1080;" xml:space="preserve">
<style type="text/css">
	.st0{fill:url(#SVGID_1_);}
	.st1{fill:#82A6D7;}
	.st2{fill:url(#SVGID_00000005984014481139101550000012243954783196925316_);}
	.st3{fill:url(#SVGID_00000069382893960352680380000013586844130849849477_);}
	.st4{fill:url(#SVGID_00000174573009211491794580000010375336033280825229_);}
	.st5{opacity:0.34;fill:#EE94BC;}
	.st6{fill:url(#SVGID_00000183944707869195410230000010007018081634336181_);}
	.st7{fill:url(#SVGID_00000136408034760016651750000007087155689979257246_);}
	.st8{fill:url(#SVGID_00000016053556837710273690000015482203306008438709_);}
	.st9{fill:url(#SVGID_00000047046090626115833890000003124376910256206521_);}
	.st10{fill:url(#SVGID_00000112607326921046508700000013119031280190776766_);}
	.st11{fill:url(#SVGID_00000057124670781427710920000012064272929672520330_);}
	.st12{fill:url(#SVGID_00000143592358701319061320000009212005055240319878_);}
	.st13{fill:url(#SVGID_00000106834529175544221570000001429006744620966539_);}
	.st14{fill:none;stroke:#FFFFFF;stroke-miterlimit:10;}
	.st15{fill:none;stroke:#ED76A4;stroke-miterlimit:10;}
	.st16{fill:#111D5E;}
	.st17{fill:#B7AFED;}
	.st18{fill:url(#SVGID_00000122001394181938230500000014495783455751598754_);}
	.st19{fill:#C1B2D7;}
	.st20{fill:url(#SVGID_00000034078061269830116800000008265707894061251245_);}
	.st21{fill:url(#SVGID_00000173862887665884978650000017543038811225486722_);}
	.st22{fill:url(#SVGID_00000031194467046337836450000010581950480093329027_);}
	.st23{fill:url(#SVGID_00000058557763059100852750000012398045935686594979_);}
	.st24{fill:url(#SVGID_00000142138765040035855280000015414390820724961418_);}
	.st25{fill:url(#SVGID_00000155826390235632200690000001689857279575460769_);}
	.st26{fill:url(#SVGID_00000065076161321500578110000006486895523335384967_);}
	.st27{fill:url(#SVGID_00000103246358321908984100000010554239607957418654_);}
	.st28{opacity:0.3;fill:#EE94BC;}
	.st29{fill:#ED76A4;}
	.st30{opacity:0.3;}
	.st31{fill:#EE94BC;}
	.st32{opacity:0.3;fill:#ED76A4;}
	.st33{clip-path:url(#SVGID_00000085246810982469469150000009374492694434217348_);fill:#82A6D7;}
	.st34{opacity:0.5;}
	.st35{clip-path:url(#SVGID_00000020393684645485419530000003393399022742794149_);fill:#C1B2D7;}
	.st36{clip-path:url(#SVGID_00000122712695109025704200000012623398654512760206_);fill:#ED76A4;}
	.st37{fill:url(#SVGID_00000013882438400014818010000017929313700108035994_);}
	.st38{fill:url(#SVGID_00000114060047211110258550000010442789537678651564_);}
</style>
<g>
	<linearGradient id="SVGID_1_" gradientUnits="userSpaceOnUse" x1="-121.3657" y1="1131.0609" x2="1664.8696" y2="-174.2656">
		<stop  offset="0.0138" style="stop-color:#FFFFFF"/>
		<stop  offset="0.021" style="stop-color:#FDFEFE"/>
		<stop  offset="0.1118" style="stop-color:#E7EFF8"/>
		<stop  offset="0.2175" style="stop-color:#D6E4F4"/>
		<stop  offset="0.348" style="stop-color:#CADDF0"/>
		<stop  offset="0.5284" style="stop-color:#C3D8EF"/>
		<stop  offset="1" style="stop-color:#C1D7EE"/>
	</linearGradient>
	<rect x="189" y="273.83" class="st0" width="770" height="698.16"/>
	<path class="st1" d="M951.44,214.88H196.56c-4.18,0-7.56,3.39-7.56,7.56v51.38h770v-51.38C959,218.26,955.62,214.88,951.44,214.88z
		"/>
	<g>
		
			<linearGradient id="SVGID_00000089534304031635648220000002359399734373207702_" gradientUnits="userSpaceOnUse" x1="236.3863" y1="256.1278" x2="266.0421" y2="234.4563">
			<stop  offset="0.0138" style="stop-color:#FFFFFF"/>
			<stop  offset="1" style="stop-color:#C1D7EE"/>
		</linearGradient>
		<path style="fill:url(#SVGID_00000089534304031635648220000002359399734373207702_);" d="M256.51,247.69
			c0,4.74-3.84,8.58-8.58,8.58s-8.58-3.84-8.58-8.58c0-4.74,3.84-8.58,8.58-8.58S256.51,242.95,256.51,247.69z"/>
		
			<linearGradient id="SVGID_00000121256190534312447270000010329972013412821912_" gradientUnits="userSpaceOnUse" x1="356.6951" y1="256.1278" x2="386.3511" y2="234.4561">
			<stop  offset="0.0138" style="stop-color:#FFFFFF"/>
			<stop  offset="1" style="stop-color:#C1D7EE"/>
		</linearGradient>
		<path style="fill:url(#SVGID_00000121256190534312447270000010329972013412821912_);" d="M376.82,247.69
			c0,4.74-3.84,8.58-8.58,8.58c-4.74,0-8.58-3.84-8.58-8.58c0-4.74,3.84-8.58,8.58-8.58C372.98,239.11,376.82,242.95,376.82,247.69z
			"/>
		
			<linearGradient id="SVGID_00000041291807282280670460000012419437441838095525_" gradientUnits="userSpaceOnUse" x1="296.541" y1="256.1276" x2="326.196" y2="234.4566">
			<stop  offset="0.0138" style="stop-color:#FFFFFF"/>
			<stop  offset="1" style="stop-color:#C1D7EE"/>
		</linearGradient>
		<path style="fill:url(#SVGID_00000041291807282280670460000012419437441838095525_);" d="M316.66,247.69
			c0,4.74-3.84,8.58-8.58,8.58c-4.74,0-8.58-3.84-8.58-8.58c0-4.74,3.84-8.58,8.58-8.58C312.82,239.11,316.66,242.95,316.66,247.69z
			"/>
	</g>
	<path class="st5" d="M959,553.09c-62.23-129.91-67.42-67.72-145.21,66.07c-78.7,135.36-119.42,148.51-154.9,60.92
		s-68.01-54.35-145.6,52.15c-77.59,106.49-111.66,44.31-195.57-171.55c-50.31-129.42-81.35-144-128.73-71.27v482.58h770V553.09z"/>
	
		<linearGradient id="SVGID_00000111880976177575283730000000976982181589609635_" gradientUnits="userSpaceOnUse" x1="229.5616" y1="362.6303" x2="863.4177" y2="362.6303">
		<stop  offset="0.0138" style="stop-color:#FFFFFF"/>
		<stop  offset="1" style="stop-color:#C1D7EE"/>
	</linearGradient>
	
		<rect x="229.56" y="353.93" style="fill:url(#SVGID_00000111880976177575283730000000976982181589609635_);" width="633.86" height="17.4"/>
</g>
</svg>
