<?xml version="1.0" encoding="utf-8"?>
<!-- Generator: Adobe Illustrator 27.9.0, SVG Export Plug-In . SVG Version: 6.00 Build 0)  -->
<svg version="1.1" id="Layer_1" xmlns="http://www.w3.org/2000/svg" xmlns:xlink="http://www.w3.org/1999/xlink" x="0px" y="0px"
	 viewBox="0 0 1080 1080" style="enable-background:new 0 0 1080 1080;" xml:space="preserve">
<style type="text/css">
	.st0{fill:url(#SVGID_1_);}
	.st1{fill:#82A6D7;}
	.st2{fill:url(#SVGID_00000114796396579344380690000006785091478528055424_);}
	.st3{fill:url(#SVGID_00000075874439970347365390000008382494182418918820_);}
	.st4{fill:url(#SVGID_00000091014183045882642690000013486754104274190520_);}
	.st5{opacity:0.34;fill:#EE94BC;}
	.st6{fill:url(#SVGID_00000044878659250929701400000003642155561581446563_);}
	.st7{fill:url(#SVGID_00000008842198164656495080000002223200976436368021_);}
	.st8{fill:url(#SVGID_00000089544796488600126750000002741376146212923581_);}
	.st9{fill:url(#SVGID_00000141453521362339262230000013182456340731406234_);}
	.st10{fill:url(#SVGID_00000065796789037356434780000002839698908468312721_);}
	.st11{fill:url(#SVGID_00000109006917389768454370000013265955819320189318_);}
	.st12{fill:url(#SVGID_00000176753077223350988430000005500142063202698169_);}
	.st13{fill:url(#SVGID_00000168106226725375570100000017141359264488949890_);}
	.st14{fill:none;stroke:#FFFFFF;stroke-miterlimit:10;}
	.st15{fill:none;stroke:#ED76A4;stroke-miterlimit:10;}
	.st16{fill:#111D5E;}
	.st17{fill:#B7AFED;}
	.st18{fill:url(#SVGID_00000069359471901811424200000015452689332424943494_);}
	.st19{fill:#C1B2D7;}
	.st20{fill:url(#SVGID_00000036248640783727817870000002644519394120856724_);}
	.st21{fill:url(#SVGID_00000145047193158134642500000014630205256714504895_);}
	.st22{fill:url(#SVGID_00000075875170219740799590000000174939135044235155_);}
	.st23{fill:url(#SVGID_00000080896268757949981020000000177508427062793910_);}
	.st24{fill:url(#SVGID_00000036250965310179751430000015144483435651702194_);}
	.st25{fill:url(#SVGID_00000088131419850962579310000014659280391002158519_);}
	.st26{fill:url(#SVGID_00000097482915385437735900000012750030866160674476_);}
	.st27{fill:url(#SVGID_00000107560547566152678680000015286458860795515823_);}
	.st28{opacity:0.3;fill:#EE94BC;}
	.st29{fill:#ED76A4;}
	.st30{opacity:0.3;}
	.st31{fill:#EE94BC;}
	.st32{opacity:0.3;fill:#ED76A4;}
	.st33{clip-path:url(#SVGID_00000167357001217743283460000011673968298181722539_);fill:#82A6D7;}
	.st34{opacity:0.5;}
	.st35{clip-path:url(#SVGID_00000124866848901429236210000000790035636557576875_);fill:#C1B2D7;}
	.st36{clip-path:url(#SVGID_00000132805661186729004680000008197613417502780056_);fill:#ED76A4;}
	.st37{fill:url(#SVGID_00000177456880738855034440000015323759317981686669_);}
	.st38{fill:url(#SVGID_00000156545645948465842730000013398449562792490369_);}
</style>
<g>
	<path class="st1" d="M472.98,694.07c2.52,0.01,5,0.22,7.43,0.61c2.05,0.33,3.95-1.26,4.41-3.62
		c20.54-105.18,81.85-172.55,175.19-191.65c2.16-0.44,3.63-2.79,3.28-5.32c-0.1-0.68-0.18-1.36-0.25-2.04
		c-0.22-2.02-1.61-3.58-3.33-3.93c-98.95-20.38-161.9-95-178.29-211.52c-1.07,0.12-2.12,0.28-3.2,0.34
		c-0.73,0.04-1.46,0.05-2.18,0.05c-1.93-0.01-3.55,1.66-3.88,3.87c-17.65,116.25-82.35,189.86-183.33,208.3
		c-1.75,0.32-3.13,1.92-3.36,3.97c0,0.03-0.01,0.05-0.01,0.08c-0.29,2.54,1.2,4.87,3.37,5.27c97.37,17.78,160.99,86.9,181.23,196.05
		C471.04,694.37,472.01,694.22,472.98,694.07z"/>
	<path class="st19" d="M852.73,781.05c1.29,0.01,2.55,0.11,3.79,0.31c1.05,0.17,2.02-0.64,2.25-1.85
		c10.49-53.74,41.82-88.16,89.51-97.92c1.1-0.23,1.86-1.43,1.68-2.72c-0.05-0.35-0.09-0.69-0.13-1.04c-0.11-1.03-0.82-1.83-1.7-2.01
		c-50.56-10.41-82.72-48.54-91.1-108.08c-0.55,0.06-1.09,0.14-1.64,0.17c-0.37,0.02-0.74,0.03-1.11,0.03
		c-0.99,0-1.81,0.85-1.98,1.98c-9.02,59.4-42.08,97.01-93.67,106.43c-0.89,0.16-1.6,0.98-1.72,2.03c0,0.01,0,0.03-0.01,0.04
		c-0.15,1.3,0.61,2.49,1.72,2.69c49.75,9.09,82.26,44.4,92.6,100.17C851.74,781.2,852.24,781.12,852.73,781.05z"/>
	<path class="st29" d="M780.47,384.76c1.28,0.01,2.54,0.11,3.77,0.31c1.04,0.17,2.01-0.64,2.24-1.84
		c10.43-53.41,41.56-87.62,88.96-97.32c1.1-0.22,1.84-1.42,1.67-2.7c-0.05-0.34-0.09-0.69-0.13-1.03c-0.11-1.02-0.82-1.82-1.69-2
		c-50.25-10.35-82.21-48.24-90.53-107.41c-0.54,0.06-1.08,0.14-1.63,0.17c-0.37,0.02-0.74,0.03-1.11,0.03
		c-0.98,0-1.8,0.84-1.97,1.97c-8.96,59.03-41.82,96.41-93.09,105.77c-0.89,0.16-1.59,0.97-1.71,2.01c0,0.01,0,0.03-0.01,0.04
		c-0.15,1.29,0.61,2.47,1.71,2.67c49.45,9.03,81.75,44.13,92.03,99.56C779.48,384.91,779.98,384.83,780.47,384.76z"/>
</g>
</svg>
