<?xml version="1.0" encoding="utf-8"?>
<!-- Generator: Adobe Illustrator 27.9.0, SVG Export Plug-In . SVG Version: 6.00 Build 0)  -->
<svg version="1.1" id="Layer_1" xmlns="http://www.w3.org/2000/svg" xmlns:xlink="http://www.w3.org/1999/xlink" x="0px" y="0px"
	 viewBox="0 0 1080 1080" style="enable-background:new 0 0 1080 1080;" xml:space="preserve">
<style type="text/css">
	.st0{fill:url(#SVGID_1_);}
	.st1{fill:#82A6D7;}
	.st2{fill:url(#SVGID_00000160887848896861239100000000179874712823005829_);}
	.st3{fill:url(#SVGID_00000156547238402878713640000012938868728459489691_);}
	.st4{fill:url(#SVGID_00000165221449273639537560000002024576516567700121_);}
	.st5{opacity:0.34;fill:#EE94BC;}
	.st6{fill:url(#SVGID_00000034054381856652600360000017742410603891185814_);}
	.st7{fill:url(#SVGID_00000093891476883278768070000008190174341607887286_);}
	.st8{fill:url(#SVGID_00000145759627069525972300000002908139846166899644_);}
	.st9{fill:url(#SVGID_00000139985716459384722900000016332815280693538732_);}
	.st10{fill:url(#SVGID_00000102518012223787692280000011467394739203767733_);}
	.st11{fill:url(#SVGID_00000062179661099701156220000005413737654092461467_);}
	.st12{fill:url(#SVGID_00000042726618427279709390000002201961505213212338_);}
	.st13{fill:url(#SVGID_00000047766765790329726840000016660935185343513240_);}
	.st14{fill:none;stroke:#FFFFFF;stroke-miterlimit:10;}
	.st15{fill:none;stroke:#ED76A4;stroke-miterlimit:10;}
	.st16{fill:#111D5E;}
	.st17{fill:#B7AFED;}
	.st18{fill:url(#SVGID_00000153703830922163392540000006286711793583974805_);}
	.st19{fill:#C1B2D7;}
	.st20{fill:url(#SVGID_00000022558855884215896400000015679124261556438687_);}
	.st21{fill:url(#SVGID_00000080895568654038945550000013485589023520709006_);}
	.st22{fill:url(#SVGID_00000127750671557408230980000012182838899204406916_);}
	.st23{fill:url(#SVGID_00000099648446242353731990000008269568329482239137_);}
	.st24{fill:url(#SVGID_00000125585695512382831000000018299959371585424813_);}
	.st25{fill:url(#SVGID_00000016787548855656789790000012310545918973511344_);}
	.st26{fill:url(#SVGID_00000149375611691296249140000014313456832882310803_);}
	.st27{fill:url(#SVGID_00000034806219770010930530000000561241045504150676_);}
	.st28{opacity:0.3;fill:#EE94BC;}
	.st29{fill:#ED76A4;}
	.st30{opacity:0.3;}
	.st31{fill:#EE94BC;}
	.st32{opacity:0.3;fill:#ED76A4;}
	.st33{clip-path:url(#SVGID_00000150103270932932824780000007461695492014967953_);fill:#82A6D7;}
	.st34{opacity:0.5;}
	.st35{clip-path:url(#SVGID_00000178901977390644307970000013858179294344735420_);fill:#C1B2D7;}
	.st36{clip-path:url(#SVGID_00000071556788435375110630000009434778353911109820_);fill:#ED76A4;}
	.st37{fill:url(#SVGID_00000112595072579620986900000014519656148949601977_);}
	.st38{fill:url(#SVGID_00000057863153931527435490000015362558521647020420_);}
</style>
<g class="st30">
	<g>
		<path class="st29" d="M494.87,197.66c-11.06-8.98-26.78,2.69-21.4,15.88c7.39,18.11,16.55,40.46,26.87,65.33
			C413.26,221,316.18,173.47,218.53,135.98c-13.68-5.25-25.01,11.74-14.92,22.36c59.73,62.87,116.22,129.31,171.87,195.75
			c-41.05-17.58-78.63-32.49-106.49-43.16c-13.31-5.1-24.62,10.87-15.41,21.74c53.65,63.3,160.58,188.09,241.35,273.64l25.61-35.36
			l-22.44-63.19c-7.49-21.09-4.8-43.88,7.39-62.53c12.12-18.55,32.44-30.57,54.34-32.15c9.12-0.66,18.22,0.46,27.06,3.31l63.8,20.62
			l53.16-40.86c1.75-1.34,3.63-2.44,5.47-3.61C638.07,316.85,546.84,239.82,494.87,197.66z"/>
		<path class="st29" d="M734.19,351.36c13.65-0.98,23.92-12.85,22.94-26.5c-0.98-13.65-12.85-23.92-26.5-22.94
			c-13.65,0.98-23.92,12.85-22.94,26.5C708.68,342.07,720.54,352.34,734.19,351.36z M606.06,194.3
			c20.45,6.54,30.57,15.31,39.98,34.61c2.66,5.47,10.84,4.88,12.69-0.91c6.54-20.45,15.31-30.57,34.61-39.98
			c5.46-2.66,4.88-10.84-0.91-12.69c-20.45-6.54-30.58-15.31-39.98-34.61c-2.66-5.47-10.84-4.88-12.69,0.91
			c-6.54,20.45-15.31,30.57-34.61,39.98C599.68,184.27,600.27,192.44,606.06,194.3z M274,517.03c-18.2,1.31-31.9,17.13-30.59,35.33
			c1.31,18.2,17.13,31.9,35.33,30.59c18.2-1.31,31.9-17.13,30.59-35.33C308.02,529.41,292.2,515.71,274,517.03z M388.24,608.19
			c-13.65,0.98-23.92,12.85-22.94,26.5c0.98,13.65,12.85,23.92,26.5,22.94c13.65-0.98,23.92-12.85,22.94-26.5
			C413.76,617.48,401.9,607.21,388.24,608.19z M850.22,591.43l-60.31-41.37c-8.07-5.54-12.9-14.68-12.91-24.47l-0.11-73.14
			c-0.03-18.41-15.82-30.83-31.95-29.66c-5.46,0.39-10.96,2.34-15.9,6.14l-57.99,44.58c-4.68,3.6-10.25,5.67-15.98,6.08
			c-3.76,0.27-7.59-0.17-11.28-1.36l-69.59-22.5c-3.88-1.25-7.72-1.68-11.38-1.42c-18.5,1.33-32.65,20.27-25.77,39.65l24.48,68.92
			c3.27,9.22,1.8,19.46-3.94,27.39l-42.9,59.24c-14.45,19.96,0.25,47.82,24.88,47.15l73.11-1.98c9.78-0.27,19.07,4.3,24.83,12.21
			l43.08,59.11c6.56,9.01,16.51,12.84,26.08,12.15c11.59-0.83,22.63-8.3,26.45-21.24l20.71-70.15c2.77-9.39,9.98-16.8,19.28-19.84
			l69.53-22.71C866.06,636.55,870.54,605.37,850.22,591.43z M794.84,623.1c-11.23,8.42-30.14,9.46-42.23,2.33
			c-12.09-7.13-12.79-19.74-1.55-28.15c11.23-8.42,30.14-9.46,42.23-2.33C805.38,602.08,806.07,614.68,794.84,623.1z"/>
	</g>
</g>
</svg>
