<?xml version="1.0" encoding="utf-8"?>
<!-- Generator: Adobe Illustrator 27.9.0, SVG Export Plug-In . SVG Version: 6.00 Build 0)  -->
<svg version="1.1" id="Layer_1" xmlns="http://www.w3.org/2000/svg" xmlns:xlink="http://www.w3.org/1999/xlink" x="0px" y="0px"
	 viewBox="0 0 1080 1080" style="enable-background:new 0 0 1080 1080;" xml:space="preserve">
<style type="text/css">
	.st0{fill:url(#SVGID_1_);}
	.st1{fill:#82A6D7;}
	.st2{fill:url(#SVGID_00000109752048105228541660000011098032895413859225_);}
	.st3{fill:url(#SVGID_00000130626414234218435510000002756130551006462394_);}
	.st4{fill:url(#SVGID_00000094584309820699450460000002042455970216588701_);}
	.st5{opacity:0.34;fill:#EE94BC;}
	.st6{fill:url(#SVGID_00000125601224515356728910000009466040618766912389_);}
	.st7{fill:url(#SVGID_00000063594553972150715350000013962726216470246841_);}
	.st8{fill:url(#SVGID_00000169541273738678059230000000206842663918957472_);}
	.st9{fill:url(#SVGID_00000005224718789512599390000008585278314840305559_);}
	.st10{fill:url(#SVGID_00000078025074597409809490000003767048721428939415_);}
	.st11{fill:url(#SVGID_00000123424370991349157360000010074213098436498860_);}
	.st12{fill:url(#SVGID_00000093176156151321380480000015004825476477796515_);}
	.st13{fill:url(#SVGID_00000030446635338617960960000000045739308776075188_);}
	.st14{fill:none;stroke:#FFFFFF;stroke-miterlimit:10;}
	.st15{fill:none;stroke:#ED76A4;stroke-miterlimit:10;}
	.st16{fill:#111D5E;}
	.st17{fill:#B7AFED;}
	.st18{fill:url(#SVGID_00000059999248501030422120000018368014896495179400_);}
	.st19{fill:#C1B2D7;}
	.st20{fill:url(#SVGID_00000010308996066801513510000009807254387548572812_);}
	.st21{fill:url(#SVGID_00000168837786706673190950000007749934297220375467_);}
	.st22{fill:url(#SVGID_00000143576295979439390720000013073252696773459115_);}
	.st23{fill:url(#SVGID_00000020378947224232402880000013722824645978689710_);}
	.st24{fill:url(#SVGID_00000072249254076753947570000004276247974867374522_);}
	.st25{fill:url(#SVGID_00000171718773985373345550000010507489326696083357_);}
	.st26{fill:url(#SVGID_00000093856787589049169740000001654048235740433550_);}
	.st27{fill:url(#SVGID_00000049208289010591731150000013686404419135387026_);}
	.st28{opacity:0.3;fill:#EE94BC;}
	.st29{fill:#ED76A4;}
	.st30{opacity:0.3;}
	.st31{fill:#EE94BC;}
	.st32{opacity:0.3;fill:#ED76A4;}
	.st33{clip-path:url(#SVGID_00000004547629306591272150000009220980410457383041_);fill:#82A6D7;}
	.st34{opacity:0.5;}
	.st35{clip-path:url(#SVGID_00000114041281427958665160000001149067416297484174_);fill:#C1B2D7;}
	.st36{clip-path:url(#SVGID_00000129167684430951073050000012190114954149509761_);fill:#ED76A4;}
	.st37{fill:url(#SVGID_00000050641993125280395390000007037889264327853747_);}
	.st38{fill:url(#SVGID_00000145027350918996245130000012957369609791318179_);}
</style>
<polygon class="st28" points="583.3,560.9 621.67,877.94 347.57,877.94 398.58,559.71 "/>
<path class="st32" d="M329.32,512.99c-27.51-6.29-54.16-15.4-80.36-25.67c-25.63-10.05-48.28-24.93-66.86-45.57
	c-22.34-24.82-24.2-52.59-4.53-79.25c6.65-9.01,14.75-16.95,22.2-25.38c21.81-10.91,42.36-24.38,65.83-31.86
	c11.63-3.7,23-8.4,34.84-11.19c12.77-3.01,20.99-9.67,27.88-21.1c28.44-47.19,68.96-78.46,123.43-90.97
	c76.53-17.58,156.37,11.9,200.28,77.52c13.99,20.91,29.61,33.61,54.33,39.74c28.16,6.98,54.73,19.83,78.71,37.04
	c11.57,8.31,21.96,17.7,29.49,29.91c15.97,25.93,13.49,52.14-6.61,75.25c-16.42,18.88-37.36,31.17-59.49,41.9
	c-28.08,13.62-57.87,22.13-87.99,29.68c-24.01,3.77-47.94,8.1-72.04,11.17c-23.14,2.94-46.45,4.57-69.68,6.77
	c-16.01-0.05-32.01-0.1-48.02-0.14c-3.67-0.58-7.34-1.59-11.03-1.67C415.7,528.15,372.4,521.49,329.32,512.99z M461.66,220.46
	c0.2-5.21-5.39-11.35-10.62-11.12c-3.69,0.16-7.47,0.73-10.99,1.81c-41.12,12.53-68.44,41.39-90.09,76.75
	c-1.85,3.02-2.57,7.11-2.67,10.74c-0.12,4.89,2.11,9.13,6.8,11.43c4.79,2.34,9.42,1.26,12.84-2.37c3.17-3.36,5.72-7.39,8.1-11.39
	c14.87-24.98,35.35-43.62,61.88-55.65c6.82-3.09,13.48-6.63,19.89-10.5C460.1,228.16,461.45,224.4,461.66,220.46z M328.84,356.49
	c0.26,1.28,0.56,5.02,1.83,8.4c2.09,5.59,6.24,9.09,12.52,8.85c5.02-0.19,9.21-2.88,10.61-7.49c2.38-7.85,4.3-15.95,5.26-24.09
	c0.68-5.79-5.95-12.66-11.75-13.62c-6.31-1.04-10.47,2.64-13.86,7.18C329.4,341.14,328.62,347.55,328.84,356.49z"/>
</svg>
