<?xml version="1.0" encoding="utf-8"?>
<!-- Generator: Adobe Illustrator 27.9.0, SVG Export Plug-In . SVG Version: 6.00 Build 0)  -->
<svg version="1.1" id="Layer_1" xmlns="http://www.w3.org/2000/svg" xmlns:xlink="http://www.w3.org/1999/xlink" x="0px" y="0px"
	 viewBox="0 0 1080 1080" style="enable-background:new 0 0 1080 1080;" xml:space="preserve">
<style type="text/css">
	.st0{fill:url(#SVGID_1_);}
	.st1{fill:#82A6D7;}
	.st2{fill:url(#SVGID_00000047769995009418880080000003796843803129859510_);}
	.st3{fill:url(#SVGID_00000139980709800952607780000006246716385929903027_);}
	.st4{fill:url(#SVGID_00000124874379037124722700000003338540318679479169_);}
	.st5{opacity:0.34;fill:#EE94BC;}
	.st6{fill:url(#SVGID_00000071542258556423442680000011217592226931580064_);}
	.st7{fill:url(#SVGID_00000001657664684075250630000004756194131493046157_);}
	.st8{fill:url(#SVGID_00000012438976828144651360000006167223116827600270_);}
	.st9{fill:url(#SVGID_00000121980152569786776330000004622501355471102900_);}
	.st10{fill:url(#SVGID_00000160158608978484329920000006866544890186346155_);}
	.st11{fill:url(#SVGID_00000005987280362360580550000008741650013972409529_);}
	.st12{fill:url(#SVGID_00000018925918329990269710000005352202504135250621_);}
	.st13{fill:url(#SVGID_00000091711684220003343120000013981936216042706564_);}
	.st14{fill:none;stroke:#FFFFFF;stroke-miterlimit:10;}
	.st15{fill:none;stroke:#ED76A4;stroke-miterlimit:10;}
	.st16{fill:#111D5E;}
	.st17{fill:#B7AFED;}
	.st18{fill:url(#SVGID_00000073719694936199847320000013443184252945811329_);}
	.st19{fill:#C1B2D7;}
	.st20{fill:url(#SVGID_00000116944276246082955760000001864976813718448257_);}
	.st21{fill:url(#SVGID_00000000223946267358300880000001221714192655636884_);}
	.st22{fill:url(#SVGID_00000098201732387568940200000006417805399790086784_);}
	.st23{fill:url(#SVGID_00000087402871785026734210000011068245522659860105_);}
	.st24{fill:url(#SVGID_00000029037004362880028600000007671247079094279319_);}
	.st25{fill:url(#SVGID_00000039103360342695356840000005025243323134101138_);}
	.st26{fill:url(#SVGID_00000021813980880285927870000000414395229503295390_);}
	.st27{fill:url(#SVGID_00000040534841698537710940000014259738309263021240_);}
	.st28{opacity:0.3;fill:#EE94BC;}
	.st29{fill:#ED76A4;}
	.st30{opacity:0.3;}
	.st31{fill:#EE94BC;}
	.st32{opacity:0.3;fill:#ED76A4;}
	.st33{clip-path:url(#SVGID_00000081638945982556481390000018423889529762023343_);fill:#82A6D7;}
	.st34{opacity:0.5;}
	.st35{clip-path:url(#SVGID_00000152948883283879667420000005034967027413408188_);fill:#C1B2D7;}
	.st36{clip-path:url(#SVGID_00000051353343118877702930000010919059572697297557_);fill:#ED76A4;}
	.st37{fill:url(#SVGID_00000005232998384758914420000002492802742635316383_);}
	.st38{fill:url(#SVGID_00000129207861291792058530000000599153892335352998_);}
</style>
<g class="st30">
	<g>
		<path class="st29" d="M681.3,363.61c-37.89-15.2-55.89-33.2-71.09-71.09c-4.31-10.73-19.88-10.73-24.19,0
			c-15.2,37.89-33.21,55.89-71.09,71.09c-10.73,4.31-10.73,19.89,0,24.19c37.89,15.2,55.89,33.2,71.09,71.09
			c4.31,10.73,19.88,10.73,24.19,0c15.2-37.89,33.2-55.89,71.09-71.09C692.03,383.5,692.03,367.92,681.3,363.61z"/>
		<path class="st29" d="M828.24,571.55c-2.55,2.8-5.17,5.55-7.87,8.25C718.99,681.17,550.5,674.54,457.9,559.9
			c-68.64-84.98-71.23-209-6.18-296.76c9.81-13.23,20.58-25.1,32.13-35.64c20.79-18.97,2.4-53.7-24.86-46.69
			c-72.25,18.58-139.56,61.17-189.28,127.99c-91.03,122.37-87.54,295.21,7.79,414.26c129.44,161.63,366.12,171.3,508.4,29.03
			c44.82-44.82,74.47-99,89.05-156.25C881.84,568.83,847,550.94,828.24,571.55z M748.55,455.59c24.19,9.7,35.68,21.2,45.38,45.38
			c2.75,6.85,12.7,6.85,15.44,0c9.7-24.19,21.2-35.68,45.38-45.38c6.85-2.75,6.85-12.7,0-15.44c-24.19-9.7-35.68-21.2-45.38-45.38
			c-2.75-6.85-12.69-6.85-15.44,0c-9.7,24.19-21.2,35.68-45.38,45.38C741.7,442.89,741.7,452.84,748.55,455.59z M643.63,156.5
			c24.29,9.75,35.83,21.28,45.57,45.57c2.76,6.88,12.75,6.88,15.51,0c9.74-24.29,21.28-35.83,45.57-45.57
			c6.88-2.76,6.88-12.75,0-15.5c-24.29-9.74-35.83-21.28-45.57-45.57c-2.76-6.88-12.75-6.88-15.51,0
			c-9.74,24.29-21.28,35.83-45.57,45.57C636.75,143.75,636.75,153.74,643.63,156.5z"/>
	</g>
</g>
</svg>
