<?xml version="1.0" encoding="utf-8"?>
<!-- Generator: Adobe Illustrator 27.9.0, SVG Export Plug-In . SVG Version: 6.00 Build 0)  -->
<svg version="1.1" id="Layer_1" xmlns="http://www.w3.org/2000/svg" xmlns:xlink="http://www.w3.org/1999/xlink" x="0px" y="0px"
	 viewBox="0 0 1080 1080" style="enable-background:new 0 0 1080 1080;" xml:space="preserve">
<style type="text/css">
	.st0{fill:url(#SVGID_1_);}
	.st1{fill:#82A6D7;}
	.st2{fill:url(#SVGID_00000128478056539592751470000002075570811484700817_);}
	.st3{fill:url(#SVGID_00000144303939315951855690000015332789689621909888_);}
	.st4{fill:url(#SVGID_00000012449075333918534360000010454964528736930733_);}
	.st5{opacity:0.34;fill:#EE94BC;}
	.st6{fill:url(#SVGID_00000107585305132425703100000013617823277453902523_);}
	.st7{fill:url(#SVGID_00000092422750880952878520000010777381028072610453_);}
	.st8{fill:url(#SVGID_00000129169165340953909770000007977081288952114819_);}
	.st9{fill:url(#SVGID_00000041979475176918252720000004128514366654174112_);}
	.st10{fill:url(#SVGID_00000092441074261666048790000014166316725372983201_);}
	.st11{fill:url(#SVGID_00000021810679945247822340000011436873050939714185_);}
	.st12{fill:url(#SVGID_00000029039777511883677310000010149324543724228284_);}
	.st13{fill:url(#SVGID_00000081617802282739920150000015251992213765744300_);}
	.st14{fill:none;stroke:#FFFFFF;stroke-miterlimit:10;}
	.st15{fill:none;stroke:#ED76A4;stroke-miterlimit:10;}
	.st16{fill:#111D5E;}
	.st17{fill:#B7AFED;}
	.st18{fill:url(#SVGID_00000125569625411050558920000012745837914322888834_);}
	.st19{fill:#C1B2D7;}
	.st20{fill:url(#SVGID_00000008853363340146947720000004351832332689204385_);}
	.st21{fill:url(#SVGID_00000174569050673914094760000013620581824623261085_);}
	.st22{fill:url(#SVGID_00000092426126192729979420000006749363598353601952_);}
	.st23{fill:url(#SVGID_00000097464680680697835290000008947027462348976531_);}
	.st24{fill:url(#SVGID_00000001646370683399368010000007704178884416941714_);}
	.st25{fill:url(#SVGID_00000060733956487376214320000013287762891900371623_);}
	.st26{fill:url(#SVGID_00000114075085292145094920000016693213208299621819_);}
	.st27{fill:url(#SVGID_00000032610821764219988010000004704202295223534520_);}
	.st28{opacity:0.3;fill:#EE94BC;}
	.st29{fill:#ED76A4;}
	.st30{opacity:0.3;}
	.st31{fill:#EE94BC;}
	.st32{opacity:0.3;fill:#ED76A4;}
	.st33{clip-path:url(#SVGID_00000054230758633581746600000001278913860013927358_);fill:#82A6D7;}
	.st34{opacity:0.5;}
	.st35{clip-path:url(#SVGID_00000146493601535958956160000011579815231075756677_);fill:#C1B2D7;}
	.st36{clip-path:url(#SVGID_00000173120810391235340190000016159545448990898315_);fill:#ED76A4;}
	.st37{fill:url(#SVGID_00000075130629806516226160000015293621758091030925_);}
	.st38{fill:url(#SVGID_00000097489658305239155370000006254048006744945071_);}
</style>
<g class="st30">
	<g>
		<g>
			<path class="st31" d="M347.86,401.94c-22.46-9.01-33.13-19.68-42.14-42.14c-2.55-6.36-11.78-6.36-14.34,0
				c-9.01,22.46-19.68,33.13-42.14,42.14c-6.36,2.55-6.36,11.78,0,14.34c22.46,9.01,33.13,19.68,42.14,42.14
				c2.55,6.36,11.79,6.36,14.34,0c9.01-22.46,19.68-33.13,42.14-42.14C354.22,413.73,354.22,404.49,347.86,401.94z M864.24,535.42
				c-27.13-10.89-40.02-23.78-50.91-50.91c-3.08-7.68-14.24-7.68-17.32,0c-10.89,27.13-23.77,40.02-50.91,50.91
				c-7.68,3.08-7.68,14.24,0,17.32c27.13,10.89,40.02,23.78,50.91,50.91c3.08,7.68,14.24,7.68,17.32,0
				c10.89-27.13,23.77-40.02,50.91-50.91C871.93,549.66,871.93,538.5,864.24,535.42z"/>
			<path class="st31" d="M183.92,598.58c18.64,0,33.74-15.11,33.74-33.74s-15.11-33.74-33.74-33.74
				c-18.63,0-33.74,15.11-33.74,33.74S165.28,598.58,183.92,598.58z M985.09,601.19c-17.19-17.19-45.07-17.19-62.26,0
				s-17.19,45.07,0,62.26s45.07,17.19,62.26,0C1002.29,646.26,1002.29,618.39,985.09,601.19z M543.78,576.62v78.2
				c0,15.53-12.59,28.12-28.12,28.12c-15.53,0-28.12-12.59-28.12-28.12v-33.2c0-0.19,0.05-0.36,0.05-0.54V403.95h67.48v14.67
				c0,12.42,10.07,22.49,22.49,22.49h134.97c12.42,0,22.49-10.07,22.49-22.49V287.08c0-12.42-10.07-22.49-22.49-22.49h-89.98v-14.67
				c0-12.42-10.07-22.49-22.49-22.49H487.6v-11.25c0-18.64-15.1-33.74-33.74-33.74c-18.64,0-33.74,15.1-33.74,33.74v377.39
				c-142.02,44.18-248.1,169.53-263.87,322.03c-1.13,10.98,7.87,20.41,18.91,20.41h714.86c11.04,0,20.05-9.43,18.91-20.41
				C889.59,728.57,734.54,582.2,543.78,576.62z M354.22,799.4c-8.6,24.26-36.43,44.54-62.16,45.3
				c-25.73,0.76-39.61-18.29-31.01-42.54c8.6-24.26,36.43-44.54,62.16-45.3S362.83,775.15,354.22,799.4z M634.33,862.6
				c-14.4,8.32-36.79,6.87-50.01-3.22c-13.22-10.09-12.26-25.02,2.14-33.34c14.4-8.32,36.79-6.88,50.01,3.22
				C649.7,839.36,648.74,854.28,634.33,862.6z M661.54,711.56c-16.21,3.74-37.19-4.19-46.88-17.71
				c-9.68-13.52-4.4-27.51,11.81-31.25c16.21-3.74,37.19,4.19,46.88,17.71C683.04,693.83,677.75,707.82,661.54,711.56z
				 M810.54,808.89c7.98,27.93-9.08,49.58-38.11,48.35c-29.02-1.23-59.02-24.86-67-52.79c-7.98-27.93,9.08-49.58,38.11-48.36
				C772.57,757.32,802.56,780.96,810.54,808.89z"/>
		</g>
	</g>
</g>
</svg>
