<?xml version="1.0" encoding="utf-8"?>
<!-- Generator: Adobe Illustrator 27.9.0, SVG Export Plug-In . SVG Version: 6.00 Build 0)  -->
<svg version="1.1" id="Layer_1" xmlns="http://www.w3.org/2000/svg" xmlns:xlink="http://www.w3.org/1999/xlink" x="0px" y="0px"
	 viewBox="0 0 1080 1080" style="enable-background:new 0 0 1080 1080;" xml:space="preserve">
<style type="text/css">
	.st0{fill:url(#SVGID_1_);}
	.st1{fill:#82A6D7;}
	.st2{fill:url(#SVGID_00000060021683003574827390000006364967836307990432_);}
	.st3{fill:url(#SVGID_00000129902206123247092750000012814047043341424054_);}
	.st4{fill:url(#SVGID_00000069392673981735807710000010431012183949842339_);}
	.st5{opacity:0.34;fill:#EE94BC;}
	.st6{fill:url(#SVGID_00000113310708059324614220000017588999841812465069_);}
	.st7{fill:url(#SVGID_00000046338733290131276440000003029867915935369892_);}
	.st8{fill:url(#SVGID_00000110435457153346594600000016154202868180427675_);}
	.st9{fill:url(#SVGID_00000061431052413727309950000008204604693572453529_);}
	.st10{fill:url(#SVGID_00000010302232698617323520000017471064411710937227_);}
	.st11{fill:url(#SVGID_00000127027805900099976720000003882989848669848201_);}
	.st12{fill:url(#SVGID_00000147935295490624557350000001380789871421997460_);}
	.st13{fill:url(#SVGID_00000055664682817168389420000004591166510101942697_);}
	.st14{fill:none;stroke:#FFFFFF;stroke-miterlimit:10;}
	.st15{fill:none;stroke:#ED76A4;stroke-miterlimit:10;}
	.st16{fill:#111D5E;}
	.st17{fill:#B7AFED;}
	.st18{fill:url(#SVGID_00000070100462018757246980000015435621371371044009_);}
	.st19{fill:#C1B2D7;}
	.st20{fill:url(#SVGID_00000168114586879063700230000014906215192076509100_);}
	.st21{fill:url(#SVGID_00000121255955660091970010000011228795246079024803_);}
	.st22{fill:url(#SVGID_00000016761166299859194620000008635372144288187033_);}
	.st23{fill:url(#SVGID_00000122701054536401090550000017263111373295137951_);}
	.st24{fill:url(#SVGID_00000020387130293846105270000001221807542691852196_);}
	.st25{fill:url(#SVGID_00000163759332205569142860000001138917170851384247_);}
	.st26{fill:url(#SVGID_00000050660102905272625580000004489401080327375287_);}
	.st27{fill:url(#SVGID_00000100343594211077493010000003832355063033584279_);}
	.st28{opacity:0.3;fill:#EE94BC;}
	.st29{fill:#ED76A4;}
	.st30{opacity:0.3;}
	.st31{fill:#EE94BC;}
	.st32{opacity:0.3;fill:#ED76A4;}
	.st33{clip-path:url(#SVGID_00000001624090371045343740000007850415467956681609_);fill:#82A6D7;}
	.st34{opacity:0.5;}
	.st35{clip-path:url(#SVGID_00000121975157981719013120000011416215813722683318_);fill:#C1B2D7;}
	.st36{clip-path:url(#SVGID_00000160883709617882278300000011973646494077000870_);fill:#ED76A4;}
	.st37{fill:url(#SVGID_00000108283140134601678060000013035395800615480214_);}
	.st38{fill:url(#SVGID_00000112601476339894506110000006010173365055274415_);}
</style>
<path class="st17" d="M345.07,482.28c10.1,17.34,65.04,4.17,122.71-29.42c57.67-33.59,96.24-74.88,86.14-92.23
	c-3.16-5.43-10.72-7.87-21.39-7.62c-23.39,0.54-61.71,13.98-101.33,37.05c-39.67,23.11-70.3,49.86-82.27,69.95
	C343.51,469.12,341.92,476.87,345.07,482.28z"/>
<linearGradient id="SVGID_1_" gradientUnits="userSpaceOnUse" x1="-285.6653" y1="-600.1036" x2="-289.1295" y2="-499.0681" gradientTransform="matrix(-0.8641 0.5033 0.5033 0.8641 428.7252 956.8859)">
	<stop  offset="0" style="stop-color:#FF7BAC"/>
	<stop  offset="1" style="stop-color:#FF7BAC;stop-opacity:0"/>
</linearGradient>
<path class="st0" d="M151.08,518.6c19.66,33.75,154.68-8.22,301.56-93.78S702.65,242.53,683,208.78c-4.49-7.71-15-11.46-30.28-11.64
	c-51.67-0.65-157.94,39.43-271.27,105.44c-122.6,71.41-214.72,150.6-230.4,194.48C147.93,505.71,147.84,513.03,151.08,518.6z"/>
<g>
	<path class="st19" d="M151.08,518.6c19.66,33.75,154.68-8.22,301.56-93.78S702.65,242.53,683,208.78
		c-4.49-7.71-15-11.46-30.28-11.64c0.75,2.07,3.28,5.27,2.14,15.2c0.51,5.14-9.18,28.69-56.14,71.25
		c-42.15,38.2-101.65,80.38-167.55,118.76c-65.88,38.37-131.92,69.32-185.96,87.15c-38.78,12.78-62.7,15.83-75.93,15.58
		c-6.24-0.12-11.98-2.77-16.69-6.84c-0.49-0.42-1-0.82-1.53-1.19C147.93,505.71,147.84,513.03,151.08,518.6z"/>
</g>
<g>
	<g>
		
			<linearGradient id="SVGID_00000102508954100714869060000005064014553452261251_" gradientUnits="userSpaceOnUse" x1="-441.1736" y1="-533.5244" x2="-451.5667" y2="-584.6233" gradientTransform="matrix(-0.8641 0.5033 0.5033 0.8641 428.7252 956.8859)">
			<stop  offset="5.263160e-03" style="stop-color:#FFFFFF"/>
			<stop  offset="0.9895" style="stop-color:#FFFFFF;stop-opacity:0"/>
		</linearGradient>
		<path style="fill:url(#SVGID_00000102508954100714869060000005064014553452261251_);" d="M521.68,241.61
			c2.91,4.11,8.46,5.17,12.41,2.37c3.96-2.78,4.73-8.42,1.78-12.49c-2.96-4.08-8.47-5.09-12.38-2.33
			C519.58,231.93,518.77,237.51,521.68,241.61z"/>
	</g>
	<g>
		
			<linearGradient id="SVGID_00000016044644212502765560000015076113386003472816_" gradientUnits="userSpaceOnUse" x1="-396.8828" y1="-541.7181" x2="-396.8828" y2="-579.8183" gradientTransform="matrix(-0.8641 0.5033 0.5033 0.8641 428.7252 956.8859)">
			<stop  offset="5.263160e-03" style="stop-color:#FFFFFF"/>
			<stop  offset="0.9895" style="stop-color:#FFFFFF;stop-opacity:0"/>
		</linearGradient>
		<path style="fill:url(#SVGID_00000016044644212502765560000015076113386003472816_);" d="M478.61,271.28
			c2.8,4.18,8.33,5.37,12.33,2.66c4.01-2.71,4.95-8.27,2.11-12.42c-2.84-4.15-8.37-5.34-12.33-2.66
			C476.75,261.53,475.81,267.1,478.61,271.28z"/>
	</g>
	<g>
		
			<linearGradient id="SVGID_00000170964217123265783550000013885703934933133697_" gradientUnits="userSpaceOnUse" x1="-351.4432" y1="-537.2822" x2="-341.9154" y2="-576.2596" gradientTransform="matrix(-0.8641 0.5033 0.5033 0.8641 428.7252 956.8859)">
			<stop  offset="5.263160e-03" style="stop-color:#FFFFFF"/>
			<stop  offset="0.9895" style="stop-color:#FFFFFF;stop-opacity:0"/>
		</linearGradient>
		<path style="fill:url(#SVGID_00000170964217123265783550000013885703934933133697_);" d="M434.81,299.84
			c2.69,4.25,8.19,5.59,12.27,2.99c4.08-2.6,5.17-8.13,2.43-12.35c-2.74-4.22-8.23-5.56-12.27-2.99
			C433.21,290.06,432.12,295.59,434.81,299.84z"/>
	</g>
	<g>
		
			<linearGradient id="SVGID_00000091013837329802704540000001297817473070111118_" gradientUnits="userSpaceOnUse" x1="-290.0311" y1="-538.6987" x2="-293.4948" y2="-575.0679" gradientTransform="matrix(-0.8641 0.5033 0.5033 0.8641 428.7252 956.8859)">
			<stop  offset="5.263160e-03" style="stop-color:#FFFFFF"/>
			<stop  offset="0.9895" style="stop-color:#FFFFFF;stop-opacity:0"/>
		</linearGradient>
		<path style="fill:url(#SVGID_00000091013837329802704540000001297817473070111118_);" d="M390.27,327.24
			c2.56,4.32,8.05,5.87,12.2,3.37c4.13-2.53,5.35-8.07,2.73-12.36c-2.62-4.3-8.05-5.75-12.13-3.25
			C388.98,317.47,387.7,322.9,390.27,327.24z"/>
	</g>
	<g>
		
			<linearGradient id="SVGID_00000075154415485047578510000010299690677209447303_" gradientUnits="userSpaceOnUse" x1="-238.7713" y1="-543.6744" x2="-240.5032" y2="-569.6524" gradientTransform="matrix(-0.8641 0.5033 0.5033 0.8641 428.7252 956.8859)">
			<stop  offset="5.263160e-03" style="stop-color:#FFFFFF"/>
			<stop  offset="0.9895" style="stop-color:#FFFFFF;stop-opacity:0"/>
		</linearGradient>
		<path style="fill:url(#SVGID_00000075154415485047578510000010299690677209447303_);" d="M344.88,353.2
			c2.41,4.42,7.8,6.08,12.04,3.72c4.24-2.36,5.66-7.83,3.18-12.21c-2.48-4.38-7.87-6.04-12.04-3.72S342.47,348.79,344.88,353.2z"/>
	</g>
	<g>
		
			<linearGradient id="SVGID_00000109725600913613300460000007834504637284050575_" gradientUnits="userSpaceOnUse" x1="-187.8505" y1="-539.9853" x2="-187.8505" y2="-572.0237" gradientTransform="matrix(-0.8641 0.5033 0.5033 0.8641 428.7252 956.8859)">
			<stop  offset="5.263160e-03" style="stop-color:#FFFFFF"/>
			<stop  offset="0.9895" style="stop-color:#FFFFFF;stop-opacity:0"/>
		</linearGradient>
		<path style="fill:url(#SVGID_00000109725600913613300460000007834504637284050575_);" d="M298.5,377.35
			c2.21,4.52,7.55,6.46,11.93,4.33c4.37-2.13,5.95-7.68,3.66-12.13c-2.31-4.51-7.56-6.25-11.84-4.16
			C297.97,367.48,296.29,372.83,298.5,377.35z"/>
	</g>
	<g>
		
			<linearGradient id="SVGID_00000176035067770481966350000009985658096384788670_" gradientUnits="userSpaceOnUse" x1="-128.0763" y1="-522.7328" x2="-137.603" y2="-581.6249" gradientTransform="matrix(-0.8641 0.5033 0.5033 0.8641 428.7252 956.8859)">
			<stop  offset="5.263160e-03" style="stop-color:#FFFFFF"/>
			<stop  offset="0.9895" style="stop-color:#FFFFFF;stop-opacity:0"/>
		</linearGradient>
		<path style="fill:url(#SVGID_00000176035067770481966350000009985658096384788670_);" d="M251.01,399.22
			c1.94,4.64,7.12,6.81,11.59,4.85c4.46-1.97,6.41-7.29,4.36-11.88c-2.05-4.59-7.24-6.76-11.59-4.85
			C251.03,389.25,249.07,394.57,251.01,399.22z"/>
	</g>
</g>
<linearGradient id="SVGID_00000056428788756255859010000017854988198069001137_" gradientUnits="userSpaceOnUse" x1="-331.9779" y1="-1007.8236" x2="-323.3196" y2="-130.4473" gradientTransform="matrix(-0.8609 0.5089 0.5089 0.8609 409.1558 989.8704)">
	<stop  offset="5.263160e-03" style="stop-color:#FFFFFF"/>
	<stop  offset="0.9895" style="stop-color:#FFFFFF;stop-opacity:0"/>
</linearGradient>
<polygon style="fill:url(#SVGID_00000056428788756255859010000017854988198069001137_);" points="582.51,396.37 836.83,727.93 
	528.09,910.43 373.66,518.02 "/>
<g>
	
		<linearGradient id="SVGID_00000093148150336637340820000018224330752860650901_" gradientUnits="userSpaceOnUse" x1="-421.1532" y1="-644.0535" x2="-156.3833" y2="-644.0535" gradientTransform="matrix(-0.8641 0.5033 0.5033 0.8641 428.7252 956.8859)">
		<stop  offset="0" style="stop-color:#FF7BAC"/>
		<stop  offset="1" style="stop-color:#FF7BAC;stop-opacity:0"/>
	</linearGradient>
	<path style="fill:url(#SVGID_00000093148150336637340820000018224330752860650901_);" d="M258.38,353.71l230.59-130.16
		c-6.61-10.1-15.95-11.3-27.17-16.82c-33.77-16.61-84.75-12.17-131.2,14.89c-46.47,27.07-75.49,69.22-77.71,106.79
		C252.22,339.65,254,343.83,258.38,353.71z"/>
	
		<linearGradient id="SVGID_00000027578202979090533780000015939237205006743941_" gradientUnits="userSpaceOnUse" x1="228.7947" y1="333.4629" x2="582.1278" y2="333.4629">
		<stop  offset="0" style="stop-color:#FF7BAC"/>
		<stop  offset="1" style="stop-color:#FF7BAC;stop-opacity:0"/>
	</linearGradient>
	<path style="fill:url(#SVGID_00000027578202979090533780000015939237205006743941_);" d="M231.02,447.79L231.02,447.79
		c3.33,5.04,9.21,7.19,13.23,4.84l46.04-26.84l246.19-143.53l42.11-24.54c4.57-2.67,4.73-9.88,0.34-15.14l-6.96-8.32
		c-1.83-2.19-4.22-3.72-6.67-4.26l-70.83-15.8c-8.19-1.83-16.04-0.71-22.31,3.16L256.66,342.88c-5.93,3.66-6.86,15.24-8.76,22.61
		l-18.82,72.91C228.34,441.32,229.05,444.81,231.02,447.79z"/>
</g>
</svg>
