<?xml version="1.0" encoding="utf-8"?>
<!-- Generator: Adobe Illustrator 27.9.0, SVG Export Plug-In . SVG Version: 6.00 Build 0)  -->
<svg version="1.1" id="Layer_1" xmlns="http://www.w3.org/2000/svg" xmlns:xlink="http://www.w3.org/1999/xlink" x="0px" y="0px"
	 viewBox="0 0 1080 1080" style="enable-background:new 0 0 1080 1080;" xml:space="preserve">
<style type="text/css">
	.st0{fill:url(#SVGID_1_);}
	.st1{fill:#82A6D7;}
	.st2{fill:url(#SVGID_00000075885207644074647380000013285425952013734816_);}
	.st3{fill:url(#SVGID_00000106829825361351662490000004376659513947017354_);}
	.st4{fill:url(#SVGID_00000127736183625281114850000016971390107416522139_);}
	.st5{opacity:0.34;fill:#EE94BC;}
	.st6{fill:url(#SVGID_00000162330604261476481110000006577715263309206917_);}
	.st7{fill:url(#SVGID_00000031205045954032283110000014370267065376071592_);}
	.st8{fill:url(#SVGID_00000008146653236221569100000001647529266063818668_);}
	.st9{fill:url(#SVGID_00000155146794636395360400000016034627140614093755_);}
	.st10{fill:url(#SVGID_00000168101109860549656470000009472153051629167003_);}
	.st11{fill:url(#SVGID_00000145036761908969450580000009101451506392888460_);}
	.st12{fill:url(#SVGID_00000093867917659008571540000013681864848924772746_);}
	.st13{fill:url(#SVGID_00000065786340256239667490000017651045145166694334_);}
	.st14{fill:none;stroke:#FFFFFF;stroke-miterlimit:10;}
	.st15{fill:none;stroke:#ED76A4;stroke-miterlimit:10;}
	.st16{fill:#111D5E;}
	.st17{fill:#B7AFED;}
	.st18{fill:url(#SVGID_00000080173025658889490460000015187216279127953033_);}
	.st19{fill:#C1B2D7;}
	.st20{fill:url(#SVGID_00000146460850576008625380000007875640530276061629_);}
	.st21{fill:url(#SVGID_00000073688324119919606550000012580508748262890134_);}
	.st22{fill:url(#SVGID_00000142864080528423842380000005166891624508469379_);}
	.st23{fill:url(#SVGID_00000136371730130379422350000005263425144380205191_);}
	.st24{fill:url(#SVGID_00000103244441658748327070000015201965183213834415_);}
	.st25{fill:url(#SVGID_00000125585889640061461930000004555110586421136063_);}
	.st26{fill:url(#SVGID_00000173146772665791970400000011057697083848022449_);}
	.st27{fill:url(#SVGID_00000091708142444394342880000017620896582069852068_);}
	.st28{opacity:0.3;fill:#EE94BC;}
	.st29{fill:#ED76A4;}
	.st30{opacity:0.3;}
	.st31{fill:#EE94BC;}
	.st32{opacity:0.3;fill:#ED76A4;}
	.st33{clip-path:url(#SVGID_00000016043355269477843520000004188148259505599421_);fill:#82A6D7;}
	.st34{opacity:0.5;}
	.st35{clip-path:url(#SVGID_00000169545800154784605540000007261273272880842942_);fill:#C1B2D7;}
	.st36{clip-path:url(#SVGID_00000084505450189312182810000002102220859705765262_);fill:#ED76A4;}
	.st37{fill:url(#SVGID_00000077297793892317207340000007710208010063092111_);}
	.st38{fill:url(#SVGID_00000078003457140088391960000001861192996487270334_);}
</style>
<g class="st30">
	<g>
		<g>
			<path class="st29" d="M711.25,353.5V208.08c0-11.07-8.97-20.04-20.04-20.04c-11.07,0-20.04,8.97-20.04,20.04v46.79
				C632.21,202.54,567.27,168,500.13,168h-17.36c-103.28,0-201.41,81.63-207.37,184.33c-19.46,6.16-33.65,24.14-33.65,45.64v53.64
				c0,22.98,16.14,42.13,37.69,46.89c5.38,56.78,59.14,102.31,116.06,102.31h191.92c56.91,0,110.68-45.53,116.06-102.31
				c21.54-4.76,37.69-23.91,37.69-46.89v-53.64C741.15,377.86,728.78,360.67,711.25,353.5z M458.15,213.93h66.59
				c11.07,0,20.04,8.97,20.04,20.04c0,11.07-8.97,20.04-20.04,20.04h-66.59c-11.07,0-20.04-8.97-20.04-20.04
				C438.11,222.9,447.09,213.93,458.15,213.93z M627.71,467.87c0,36.65-29.71,66.36-66.36,66.36H421.55
				c-36.65,0-66.36-29.71-66.36-66.36V432.5c0-75.25,61-136.26,136.26-136.26s136.26,61,136.26,136.26V467.87z"/>
			<path class="st29" d="M435.34,500.63h128.24c11.07,0,20.04-8.97,20.04-20.04s-8.97-20.04-20.04-20.04H435.34
				c-11.07,0-20.04,8.97-20.04,20.04S424.28,500.63,435.34,500.63z M669.85,617.09c-24.26,15.02-52.67,23.8-82.45,23.8H395.49
				c-27.75,0-54.24-7.75-77.36-20.94c-41.13,16.51-70.15,56.25-70.15,102.73v73.41c0,4.43,3.59,8.02,8.02,8.02h483.92
				c4.41,0,8.02-3.61,8.02-8.02v-73.41C747.93,673.26,715.14,631.44,669.85,617.09z M643.74,726.13h-66.52
				c-11.07,0-20.04-8.97-20.04-20.04s8.97-20.04,20.04-20.04h66.52c11.07,0,20.04,8.97,20.04,20.04S654.8,726.13,643.74,726.13z"/>
		</g>
	</g>
</g>
</svg>
