<?xml version="1.0" encoding="utf-8"?>
<!-- Generator: Adobe Illustrator 27.9.0, SVG Export Plug-In . SVG Version: 6.00 Build 0)  -->
<svg version="1.1" id="Layer_1" xmlns="http://www.w3.org/2000/svg" xmlns:xlink="http://www.w3.org/1999/xlink" x="0px" y="0px"
	 viewBox="0 0 1080 1080" style="enable-background:new 0 0 1080 1080;" xml:space="preserve">
<style type="text/css">
	.st0{fill:url(#SVGID_1_);}
	.st1{fill:#82A6D7;}
	.st2{fill:url(#SVGID_00000062873555991059702560000000309388247817216699_);}
	.st3{fill:url(#SVGID_00000003102368795162286030000005478041876669426816_);}
	.st4{fill:url(#SVGID_00000086676394256286184360000006274435013704059555_);}
	.st5{opacity:0.34;fill:#EE94BC;}
	.st6{fill:url(#SVGID_00000070115076301246582240000007761040335255365544_);}
	.st7{fill:url(#SVGID_00000116955935014966916780000002887377987448874395_);}
	.st8{fill:url(#SVGID_00000069396610129049293920000013257567106838381954_);}
	.st9{fill:url(#SVGID_00000047775604872635996310000009513678753630705538_);}
	.st10{fill:url(#SVGID_00000147213461679904885280000010863278451558576813_);}
	.st11{fill:url(#SVGID_00000131327790920367241190000006720502039534841230_);}
	.st12{fill:url(#SVGID_00000093880992507430692070000015493086454548386966_);}
	.st13{fill:url(#SVGID_00000150816092192993073240000010241611538649864836_);}
	.st14{fill:none;stroke:#FFFFFF;stroke-miterlimit:10;}
	.st15{fill:none;stroke:#ED76A4;stroke-miterlimit:10;}
	.st16{fill:#111D5E;}
	.st17{fill:#B7AFED;}
	.st18{fill:url(#SVGID_00000139286737402893536530000012165161400961713341_);}
	.st19{fill:#C1B2D7;}
	.st20{fill:url(#SVGID_00000034081128511492783820000004642508961555686790_);}
	.st21{fill:url(#SVGID_00000052072564957886373350000012116379566484310964_);}
	.st22{fill:url(#SVGID_00000025432390767748047180000007486205729846854537_);}
	.st23{fill:url(#SVGID_00000093879404825268229650000009254695881621632388_);}
	.st24{fill:url(#SVGID_00000044146277029866497580000017865973498673813895_);}
	.st25{fill:url(#SVGID_00000093144951400040518770000008029276575250473369_);}
	.st26{fill:url(#SVGID_00000054967933540170179810000009837374957054531006_);}
	.st27{fill:url(#SVGID_00000110471628615497380220000007584854641789007031_);}
	.st28{opacity:0.3;fill:#EE94BC;}
	.st29{fill:#ED76A4;}
	.st30{opacity:0.3;}
	.st31{fill:#EE94BC;}
	.st32{opacity:0.3;fill:#ED76A4;}
	.st33{clip-path:url(#SVGID_00000132052791743644439500000012938159517218420408_);fill:#82A6D7;}
	.st34{opacity:0.5;}
	.st35{clip-path:url(#SVGID_00000182527308173415560930000001530232657268159417_);fill:#C1B2D7;}
	.st36{clip-path:url(#SVGID_00000179646640754715001040000009826795830882471812_);fill:#ED76A4;}
	.st37{fill:url(#SVGID_00000150805682311110316860000000746106749945687430_);}
	.st38{fill:url(#SVGID_00000009558084552667627430000014602221890486326439_);}
</style>
<path class="st32" d="M847.15,483.2c-12.8-12.09-28.17-20.05-44.24-26.67c-28.92-11.93-58.95-19.95-89.85-24.73
	c1.95,16.39,9.4,30.93,15.53,45.91c25.37,4.9,50,12.15,73.13,23.82c8.27,4.17,19.31,7.58,20.02,18.1
	c0.85,12.46-11.48,15.96-20.24,20.39c-23.1,11.67-47.67,19.26-73.23,23.51c-41.78,12.02-84.86,16.21-127.9,17.95
	c-48.35,1.95-96.86,1.33-145.27,0.27c-25.83-0.56-51.72-3.45-77.33-7.07c-18.7-2.64-37.85-4.14-55.68-11.44
	c-27.49-3.56-53.33-12.42-77.96-24.81c-7.53-3.78-17.05-7.91-17.31-17.33c-0.26-9.62,9.27-13.83,16.77-17.75
	c24.48-12.79,50.66-20.68,77.75-25.66c5.3-15.38,10.6-30.75,15.92-46.12c-31.78,4.78-62.63,13.04-92.33,25.36
	c-15.25,6.33-29.83,13.95-42.14,25.2c-26.24,23.97-26.64,52.42-0.72,76.32c6.31,5.82,13.55,10.82,20.93,15.25
	c13.39,8.05,27.93,13.66,42.71,18.74c35.38,12.15,71.92,19.36,108.85,24c109.73,13.78,219.39,13.29,328.71-4.49
	c33.35-5.42,66.2-13.24,97.61-26.1c16.89-6.91,33.17-15.05,46.57-27.78C871.73,534.99,871.57,506.27,847.15,483.2z"/>
<ellipse class="st32" cx="526.39" cy="496" rx="206.66" ry="214"/>
</svg>
